#define 29288_4fd078c83cf43aa07b11a56dcacd28bb2eab000c793c78468fd18304a2b9c1bc-4_width 64
#define 29288_4fd078c83cf43aa07b11a56dcacd28bb2eab000c793c78468fd18304a2b9c1bc-4_height 64
static char 29288_4fd078c83cf43aa07b11a56dcacd28bb2eab000c793c78468fd18304a2b9c1bc-4_bits[] = {
  0x00, 0x00, 0x00, 0x00, 0x00, 0x00, 0x00, 0x00, 0x00, 0x00, 0x00, 0x00, 
  0x00, 0x00, 0x00, 0x00, 0x00, 0x00, 0x00, 0x00, 0x00, 0x00, 0x00, 0x00, 
  0x00, 0x00, 0x00, 0x00, 0x00, 0x00, 0x00, 0x00, 0x00, 0x00, 0x00, 0x00, 
  0x00, 0x00, 0x00, 0x00, 0x00, 0x00, 0x00, 0x00, 0x00, 0x00, 0x00, 0x00, 
  0x00, 0x00, 0x00, 0x00, 0x00, 0x00, 0x00, 0x00, 0x00, 0x00, 0x00, 0x00, 
  0x00, 0x00, 0x00, 0x00, 0x00, 0x00, 0x00, 0x00, 0x00, 0x00, 0x00, 0x00, 
  0x00, 0x00, 0x00, 0x00, 0x00, 0x00, 0x00, 0x00, 0x00, 0x00, 0x00, 0x00, 
  0x00, 0x00, 0x00, 0x00, 0x00, 0x00, 0x00, 0x00, 0x00, 0x00, 0x00, 0x00, 
  0x00, 0x00, 0x00, 0x00, 0x00, 0x00, 0x00, 0x00, 0x00, 0x00, 0x00, 0x00, 
  0x00, 0x00, 0x00, 0x00, 0x00, 0x3E, 0xE0, 0x01, 0x80, 0x0F, 0x7C, 0x00, 
  0x00, 0x7F, 0xF8, 0x03, 0xC0, 0x1F, 0xFE, 0x00, 0x00, 0x7F, 0xF8, 0x07, 
  0xE0, 0x1F, 0xFE, 0x01, 0x80, 0xFF, 0xF8, 0x07, 0xE0, 0x3F, 0xFF, 0x01, 
  0x80, 0xFF, 0xF8, 0x07, 0xE0, 0x3F, 0xFF, 0x01, 0x80, 0xFF, 0xF8, 0x07, 
  0xE0, 0x1F, 0xFE, 0x01, 0x00, 0x7F, 0xF8, 0x03, 0xC0, 0x1F, 0xFE, 0x00, 
  0x00, 0x7F, 0xF0, 0x03, 0x80, 0x0F, 0xFC, 0x00, 0x00, 0x00, 0x00, 0x00, 
  0x00, 0x00, 0x00, 0x00, 0x00, 0x00, 0x00, 0x00, 0x00, 0x00, 0x00, 0x00, 
  0x00, 0x00, 0x00, 0x00, 0x00, 0x00, 0x00, 0x00, 0x00, 0x1C, 0x00, 0x00, 
  0x00, 0x00, 0x78, 0x00, 0x00, 0x7F, 0x00, 0x00, 0x00, 0x00, 0xFE, 0x00, 
  0x00, 0x7F, 0x00, 0x00, 0x00, 0x00, 0xFE, 0x01, 0x80, 0xFF, 0x00, 0x00, 
  0x00, 0x00, 0xFE, 0x01, 0x80, 0xFF, 0x00, 0x00, 0x00, 0x00, 0xFF, 0x01, 
  0x80, 0xFF, 0x00, 0x00, 0x00, 0x00, 0xFE, 0x01, 0x00, 0x7F, 0x00, 0x00, 
  0x00, 0x00, 0xFE, 0x00, 0x00, 0x7F, 0x00, 0x00, 0x00, 0x00, 0xFE, 0x00, 
  0x00, 0x1C, 0x00, 0x00, 0x00, 0x00, 0x10, 0x00, 0x00, 0x00, 0x00, 0x00, 
  0x00, 0x00, 0x00, 0x00, 0x00, 0x00, 0x00, 0x00, 0x00, 0x00, 0x00, 0x00, 
  0x00, 0x00, 0x00, 0x00, 0x00, 0x02, 0x10, 0x00, 0x00, 0x7F, 0x00, 0x00, 
  0xC0, 0x1F, 0xFE, 0x00, 0x00, 0x7F, 0x00, 0x00, 0xC0, 0x1F, 0xFE, 0x01, 
  0x80, 0xFF, 0x00, 0x00, 0xE0, 0x3F, 0xFE, 0x01, 0x80, 0xFF, 0x00, 0x00, 
  0xE0, 0x3F, 0xFF, 0x01, 0x80, 0xFF, 0x00, 0x00, 0xE0, 0x3F, 0xFE, 0x01, 
  0x00, 0x7F, 0x00, 0x00, 0xE0, 0x1F, 0xFE, 0x01, 0x00, 0x7F, 0x00, 0x00, 
  0xC0, 0x1F, 0xFE, 0x00, 0x00, 0x3E, 0x00, 0x00, 0x00, 0x07, 0x38, 0x00, 
  0x00, 0x00, 0x00, 0x00, 0x00, 0x00, 0x00, 0x00, 0x00, 0x00, 0x00, 0x00, 
  0x00, 0x00, 0x00, 0x00, 0x00, 0x00, 0x00, 0x00, 0x00, 0x00, 0x00, 0x00, 
  0x00, 0x00, 0x00, 0x00, 0x00, 0x00, 0x00, 0x00, 0x00, 0x00, 0x00, 0x00, 
  0x00, 0x00, 0x00, 0x00, 0x00, 0x00, 0x00, 0x00, 0x00, 0x00, 0x00, 0x00, 
  0x00, 0x00, 0x00, 0x00, 0x00, 0x00, 0x00, 0x00, 0x00, 0x00, 0x00, 0x00, 
  0x00, 0x00, 0x00, 0x00, 0x00, 0x00, 0x00, 0x00, 0x00, 0x00, 0x00, 0x00, 
  0x00, 0x00, 0x00, 0x00, 0x00, 0x00, 0x00, 0x00, 0x00, 0x00, 0x00, 0x00, 
  0x00, 0x00, 0x00, 0x00, 0x00, 0x00, 0x00, 0x00, 0x00, 0x00, 0x00, 0x00, 
  0x00, 0x00, 0x00, 0x00, 0x00, 0x00, 0x00, 0x00, 0x00, 0x00, 0x00, 0x00, 
  0x00, 0x00, 0x00, 0x00, 0x00, 0x00, 0x00, 0x00, 0x00, 0x00, 0x00, 0x00, 
  0x00, 0x00, 0x00, 0x00, 0x00, 0x00, 0x00, 0x00, 0x00, 0x00, 0x00, 0x00, 
  0x00, 0x00, 0x00, 0x00, 0x00, 0x00, 0x00, 0x00, 0x00, 0x00, 0x00, 0x00, 
  0x00, 0x00, 0x00, 0x00, 0x00, 0x00, 0x00, 0x00, };
